<svg width="160" height="34" viewBox="0 0 160 34" fill="none" xmlns="http://www.w3.org/2000/svg">
<path d="M0 4.5946C0 2.05707 2.05707 0 4.59459 0H143C152.389 0 160 7.61116 160 17V17C160 26.3888 152.389 34 143 34H29.4054C13.1653 34 0 20.8348 0 4.5946V4.5946Z" fill="#2276F0"/>
<path d="M25.2486 9.45455H28.3239V18.9006C28.3239 19.9612 28.0705 20.8892 27.5639 21.6847C27.062 22.4801 26.3589 23.1004 25.4545 23.5455C24.5502 23.9858 23.4967 24.206 22.294 24.206C21.0866 24.206 20.0308 23.9858 19.1264 23.5455C18.2221 23.1004 17.5189 22.4801 17.017 21.6847C16.5152 20.8892 16.2642 19.9612 16.2642 18.9006V9.45455H19.3395V18.6378C19.3395 19.1918 19.4602 19.6842 19.7017 20.1151C19.9479 20.5459 20.2936 20.8845 20.7386 21.1307C21.1837 21.3769 21.7022 21.5 22.294 21.5C22.8906 21.5 23.4091 21.3769 23.8494 21.1307C24.2945 20.8845 24.6378 20.5459 24.8793 20.1151C25.1255 19.6842 25.2486 19.1918 25.2486 18.6378V9.45455ZM30.7972 28.0909V13.0909H33.7802V14.9233H33.9151C34.0477 14.6297 34.2395 14.3314 34.4904 14.0284C34.7461 13.7206 35.0775 13.465 35.4847 13.2614C35.8967 13.053 36.408 12.9489 37.0188 12.9489C37.8143 12.9489 38.5482 13.1572 39.2205 13.5739C39.8929 13.9858 40.4303 14.6084 40.8327 15.4418C41.2352 16.2704 41.4364 17.3097 41.4364 18.5597C41.4364 19.7765 41.2399 20.804 40.8469 21.642C40.4587 22.4754 39.9284 23.1075 39.256 23.5384C38.5884 23.9645 37.8403 24.1776 37.0117 24.1776C36.4246 24.1776 35.9251 24.0805 35.5131 23.8864C35.1059 23.6922 34.7721 23.4484 34.5117 23.1548C34.2513 22.8565 34.0524 22.5559 33.9151 22.2528H33.8228V28.0909H30.7972ZM33.7589 18.5455C33.7589 19.1941 33.8488 19.7599 34.0288 20.2429C34.2087 20.7259 34.4691 21.1023 34.81 21.3722C35.1509 21.6373 35.5652 21.7699 36.0529 21.7699C36.5453 21.7699 36.962 21.6349 37.3029 21.3651C37.6438 21.0904 37.9019 20.7116 38.0771 20.2287C38.257 19.741 38.3469 19.1799 38.3469 18.5455C38.3469 17.9157 38.2594 17.3617 38.0842 16.8835C37.909 16.4053 37.6509 16.0312 37.31 15.7614C36.9691 15.4915 36.5501 15.3565 36.0529 15.3565C35.5605 15.3565 35.1438 15.4867 34.8029 15.7472C34.4667 16.0076 34.2087 16.3769 34.0288 16.8551C33.8488 17.3333 33.7589 17.8968 33.7589 18.5455ZM48.3683 28.3182C47.3881 28.3182 46.5477 28.1832 45.8469 27.9134C45.1509 27.6482 44.5969 27.286 44.185 26.8267C43.7731 26.3674 43.5056 25.8513 43.3825 25.2784L46.1808 24.902C46.266 25.1198 46.4009 25.3234 46.5856 25.5128C46.7702 25.7022 47.0141 25.8537 47.3171 25.9673C47.6249 26.0857 47.9989 26.1449 48.4393 26.1449C49.0974 26.1449 49.6396 25.9839 50.0657 25.6619C50.4966 25.3447 50.712 24.812 50.712 24.0639V22.0682H50.5842C50.4516 22.3712 50.2527 22.6577 49.9876 22.9276C49.7224 23.1974 49.3815 23.4176 48.9648 23.5881C48.5482 23.7585 48.051 23.8438 47.4734 23.8438C46.6542 23.8438 45.9085 23.6544 45.2362 23.2756C44.5685 22.892 44.0359 22.3073 43.6381 21.5213C43.2451 20.7306 43.0487 19.7315 43.0487 18.5241C43.0487 17.2884 43.2499 16.2562 43.6523 15.4276C44.0548 14.599 44.5898 13.9787 45.2575 13.5668C45.9298 13.1548 46.6661 12.9489 47.4663 12.9489C48.0771 12.9489 48.5884 13.053 49.0004 13.2614C49.4123 13.465 49.7437 13.7206 49.9947 14.0284C50.2504 14.3314 50.4469 14.6297 50.5842 14.9233H50.6978V13.0909H53.7021V24.1065C53.7021 25.0346 53.4748 25.8111 53.0202 26.4361C52.5657 27.0611 51.936 27.5298 51.131 27.8423C50.3308 28.1596 49.4099 28.3182 48.3683 28.3182ZM48.4322 21.571C48.9199 21.571 49.3318 21.4503 49.668 21.2088C50.0089 20.9626 50.2693 20.6122 50.4492 20.1577C50.6339 19.6984 50.7262 19.1491 50.7262 18.5099C50.7262 17.8707 50.6362 17.3168 50.4563 16.848C50.2764 16.3745 50.016 16.0076 49.6751 15.7472C49.3342 15.4867 48.9199 15.3565 48.4322 15.3565C47.935 15.3565 47.516 15.4915 47.1751 15.7614C46.8342 16.0265 46.5761 16.3958 46.4009 16.8693C46.2257 17.3428 46.1381 17.8897 46.1381 18.5099C46.1381 19.1397 46.2257 19.6842 46.4009 20.1435C46.5808 20.598 46.8389 20.9508 47.1751 21.2017C47.516 21.4479 47.935 21.571 48.4322 21.571ZM56.1097 24V13.0909H59.043V14.9943H59.1566C59.3555 14.3172 59.6893 13.8059 60.158 13.4602C60.6268 13.1098 61.1665 12.9347 61.7773 12.9347C61.9289 12.9347 62.0922 12.9441 62.2674 12.9631C62.4426 12.982 62.5965 13.008 62.729 13.0412V15.7259C62.587 15.6832 62.3905 15.6454 62.1396 15.6122C61.8886 15.5791 61.659 15.5625 61.4506 15.5625C61.0056 15.5625 60.6078 15.6596 60.2575 15.8537C59.9118 16.0431 59.6372 16.3082 59.4336 16.6491C59.2347 16.9901 59.1353 17.383 59.1353 17.8281V24H56.1097ZM67.0916 24.206C66.3956 24.206 65.7753 24.0852 65.2308 23.8438C64.6863 23.5975 64.2554 23.2353 63.9382 22.7571C63.6257 22.2741 63.4695 21.6728 63.4695 20.9531C63.4695 20.3471 63.5807 19.8381 63.8033 19.4261C64.0258 19.0142 64.3288 18.6828 64.7124 18.4318C65.0959 18.1809 65.5315 17.9915 66.0192 17.8636C66.5116 17.7358 67.0277 17.6458 67.5675 17.5938C68.2019 17.5275 68.7133 17.4659 69.1016 17.4091C69.4898 17.3475 69.7715 17.2576 69.9467 17.1392C70.1219 17.0208 70.2095 16.8456 70.2095 16.6136V16.571C70.2095 16.1212 70.0675 15.7732 69.7834 15.527C69.504 15.2808 69.1063 15.1577 68.5902 15.1577C68.0457 15.1577 67.6125 15.2784 67.2905 15.5199C66.9685 15.7566 66.7554 16.0549 66.6513 16.4148L63.853 16.1875C63.995 15.5246 64.2744 14.9517 64.6911 14.4688C65.1077 13.9811 65.6451 13.607 66.3033 13.3466C66.9661 13.0814 67.7332 12.9489 68.6044 12.9489C69.2105 12.9489 69.7905 13.0199 70.3445 13.1619C70.9032 13.304 71.398 13.5241 71.8288 13.8224C72.2644 14.1207 72.6077 14.5043 72.8587 14.973C73.1096 15.437 73.2351 15.9934 73.2351 16.642V24H70.3658V22.4872H70.2805C70.1054 22.8281 69.871 23.1288 69.5774 23.3892C69.2839 23.6449 68.9311 23.8461 68.5192 23.9929C68.1072 24.1349 67.6314 24.206 67.0916 24.206ZM67.9581 22.1179C68.4032 22.1179 68.7962 22.0303 69.1371 21.8551C69.478 21.6752 69.7455 21.4337 69.9396 21.1307C70.1338 20.8277 70.2308 20.4844 70.2308 20.1009V18.9432C70.1361 19.0047 70.0059 19.0616 69.8402 19.1136C69.6792 19.161 69.4969 19.206 69.2933 19.2486C69.0897 19.2865 68.8861 19.322 68.6825 19.3551C68.4789 19.3835 68.2943 19.4096 68.1286 19.4332C67.7734 19.4853 67.4633 19.5682 67.1982 19.6818C66.933 19.7955 66.727 19.9493 66.5803 20.1435C66.4335 20.3329 66.3601 20.5696 66.3601 20.8537C66.3601 21.2656 66.5092 21.5805 66.8075 21.7983C67.1106 22.0114 67.4941 22.1179 67.9581 22.1179ZM79.6023 24.1776C78.7737 24.1776 78.0232 23.9645 77.3509 23.5384C76.6832 23.1075 76.1529 22.4754 75.7599 21.642C75.3717 20.804 75.1776 19.7765 75.1776 18.5597C75.1776 17.3097 75.3788 16.2704 75.7812 15.4418C76.1837 14.6084 76.7188 13.9858 77.3864 13.5739C78.0587 13.1572 78.795 12.9489 79.5952 12.9489C80.206 12.9489 80.715 13.053 81.1222 13.2614C81.5341 13.465 81.8655 13.7206 82.1165 14.0284C82.3722 14.3314 82.5663 14.6297 82.6989 14.9233H82.7912V9.45455H85.8097V24H82.8267V22.2528H82.6989C82.5568 22.5559 82.3556 22.8565 82.0952 23.1548C81.8395 23.4484 81.5057 23.6922 81.0938 23.8864C80.6866 24.0805 80.1894 24.1776 79.6023 24.1776ZM80.5611 21.7699C81.0488 21.7699 81.4607 21.6373 81.7969 21.3722C82.1378 21.1023 82.3982 20.7259 82.5781 20.2429C82.7628 19.7599 82.8551 19.1941 82.8551 18.5455C82.8551 17.8968 82.7652 17.3333 82.5852 16.8551C82.4053 16.3769 82.1449 16.0076 81.804 15.7472C81.4631 15.4867 81.0488 15.3565 80.5611 15.3565C80.0639 15.3565 79.6449 15.4915 79.304 15.7614C78.9631 16.0312 78.705 16.4053 78.5298 16.8835C78.3546 17.3617 78.267 17.9157 78.267 18.5455C78.267 19.1799 78.3546 19.741 78.5298 20.2287C78.7098 20.7116 78.9678 21.0904 79.304 21.3651C79.6449 21.6349 80.0639 21.7699 80.5611 21.7699ZM93.2688 24.2131C92.1467 24.2131 91.1808 23.9858 90.3711 23.5312C89.5662 23.072 88.9459 22.4233 88.5103 21.5852C88.0747 20.7424 87.8569 19.7457 87.8569 18.5952C87.8569 17.473 88.0747 16.4882 88.5103 15.6406C88.9459 14.7931 89.5591 14.1326 90.3498 13.6591C91.1452 13.1856 92.078 12.9489 93.1481 12.9489C93.8678 12.9489 94.5378 13.0649 95.158 13.2969C95.783 13.5241 96.3275 13.8674 96.7915 14.3267C97.2603 14.786 97.6249 15.3636 97.8853 16.0597C98.1457 16.7509 98.2759 17.5606 98.2759 18.4886V19.3196H89.0643V17.4446H95.4279C95.4279 17.009 95.3332 16.6231 95.1438 16.2869C94.9544 15.9508 94.6916 15.688 94.3555 15.4986C94.024 15.3045 93.6381 15.2074 93.1978 15.2074C92.7385 15.2074 92.3313 15.3139 91.9762 15.527C91.6258 15.7353 91.3512 16.017 91.1523 16.3722C90.9535 16.7225 90.8517 17.1132 90.8469 17.544V19.3267C90.8469 19.8665 90.9464 20.3329 91.1452 20.7259C91.3488 21.1188 91.6353 21.4219 92.0046 21.6349C92.3739 21.848 92.8119 21.9545 93.3185 21.9545C93.6547 21.9545 93.9625 21.9072 94.2418 21.8125C94.5212 21.7178 94.7603 21.5758 94.9592 21.3864C95.158 21.197 95.3095 20.965 95.4137 20.6903L98.212 20.875C98.07 21.5473 97.7788 22.1345 97.3384 22.6364C96.9028 23.1335 96.3394 23.5218 95.6481 23.8011C94.9615 24.0758 94.1684 24.2131 93.2688 24.2131ZM112.827 13.6378C112.77 13.0649 112.526 12.6198 112.095 12.3026C111.664 11.9853 111.08 11.8267 110.341 11.8267C109.839 11.8267 109.415 11.8977 109.07 12.0398C108.724 12.1771 108.459 12.3688 108.274 12.6151C108.094 12.8613 108.004 13.1406 108.004 13.4531C107.995 13.7135 108.049 13.9408 108.168 14.1349C108.291 14.3291 108.459 14.4972 108.672 14.6392C108.885 14.7765 109.131 14.8973 109.411 15.0014C109.69 15.1009 109.988 15.1861 110.305 15.2571L111.612 15.5696C112.247 15.7116 112.829 15.901 113.359 16.1378C113.89 16.3745 114.349 16.6657 114.737 17.0114C115.125 17.357 115.426 17.7642 115.639 18.233C115.857 18.7017 115.968 19.2391 115.973 19.8452C115.968 20.7353 115.741 21.5071 115.291 22.1605C114.846 22.8092 114.202 23.3134 113.359 23.6733C112.521 24.0284 111.51 24.206 110.327 24.206C109.152 24.206 108.13 24.026 107.259 23.6662C106.392 23.3063 105.715 22.7737 105.227 22.0682C104.744 21.358 104.491 20.4796 104.467 19.4332H107.443C107.476 19.9209 107.616 20.3281 107.862 20.6548C108.113 20.9768 108.447 21.2206 108.864 21.3864C109.285 21.5473 109.761 21.6278 110.291 21.6278C110.812 21.6278 111.264 21.5521 111.648 21.4006C112.036 21.2491 112.337 21.0384 112.55 20.7685C112.763 20.4986 112.869 20.1884 112.869 19.8381C112.869 19.5114 112.772 19.2367 112.578 19.0142C112.389 18.7917 112.109 18.6023 111.74 18.446C111.375 18.2898 110.928 18.1477 110.398 18.0199L108.814 17.6222C107.588 17.3239 106.619 16.8575 105.909 16.223C105.199 15.5885 104.846 14.7339 104.851 13.6591C104.846 12.7784 105.08 12.009 105.554 11.3509C106.032 10.6927 106.688 10.179 107.521 9.80966C108.355 9.44034 109.302 9.25568 110.362 9.25568C111.442 9.25568 112.384 9.44034 113.189 9.80966C113.999 10.179 114.628 10.6927 115.078 11.3509C115.528 12.009 115.76 12.7713 115.774 13.6378H112.827ZM120.726 20.8608L120.733 17.2315H121.174L124.668 13.0909H128.141L123.446 18.5739H122.729L120.726 20.8608ZM117.985 24V9.45455H121.01V24H117.985ZM124.803 24L121.593 19.2486L123.61 17.1108L128.347 24H124.803ZM129.625 24V13.0909H132.651V24H129.625ZM131.145 11.6847C130.695 11.6847 130.31 11.5355 129.988 11.2372C129.67 10.9342 129.512 10.572 129.512 10.1506C129.512 9.7339 129.67 9.37642 129.988 9.07812C130.31 8.77509 130.695 8.62358 131.145 8.62358C131.595 8.62358 131.979 8.77509 132.296 9.07812C132.618 9.37642 132.779 9.7339 132.779 10.1506C132.779 10.572 132.618 10.9342 132.296 11.2372C131.979 11.5355 131.595 11.6847 131.145 11.6847ZM138.1 9.45455V24H135.075V9.45455H138.1ZM143.549 9.45455V24H140.524V9.45455H143.549Z" fill="white"/>
</svg>
