<svg width="210" height="34" viewBox="0 0 210 34" fill="none" xmlns="http://www.w3.org/2000/svg">
<path d="M0.984161 17C0.984161 7.61116 8.59532 0 17.9842 0H205.39C207.927 0 209.984 2.05707 209.984 4.59459V4.59459C209.984 20.8348 196.819 34 180.579 34H17.9842C8.59532 34 0.984161 26.3888 0.984161 17V17Z" fill="#673EF0"/>
<path d="M17.2484 24V9.45455H27.0495V11.9901H20.3237V15.456H26.5452V17.9915H20.3237V21.4645H27.0779V24H17.2484ZM35.3041 13.0909V15.3636H28.5712V13.0909H35.3041ZM30.1124 24V12.3026C30.1124 11.5118 30.2662 10.8561 30.574 10.3352C30.8865 9.81439 31.3126 9.42377 31.8524 9.16335C32.3922 8.90293 33.0054 8.77273 33.6919 8.77273C34.1559 8.77273 34.5797 8.80824 34.9632 8.87926C35.3515 8.95028 35.6403 9.0142 35.8297 9.07102L35.2899 11.3438C35.1715 11.3059 35.0248 11.2704 34.8496 11.2372C34.6791 11.2041 34.5039 11.1875 34.324 11.1875C33.8789 11.1875 33.5688 11.2917 33.3936 11.5C33.2184 11.7036 33.1308 11.9901 33.1308 12.3594V24H30.1124ZM43.019 13.0909V15.3636H36.286V13.0909H43.019ZM37.8272 24V12.3026C37.8272 11.5118 37.9811 10.8561 38.2888 10.3352C38.6013 9.81439 39.0275 9.42377 39.5673 9.16335C40.107 8.90293 40.7202 8.77273 41.4067 8.77273C41.8708 8.77273 42.2945 8.80824 42.6781 8.87926C43.0663 8.95028 43.3551 9.0142 43.5445 9.07102L43.0048 11.3438C42.8864 11.3059 42.7396 11.2704 42.5644 11.2372C42.394 11.2041 42.2188 11.1875 42.0388 11.1875C41.5938 11.1875 41.2836 11.2917 41.1085 11.5C40.9333 11.7036 40.8457 11.9901 40.8457 12.3594V24H37.8272ZM49.4483 24.2131C48.3261 24.2131 47.3602 23.9858 46.5506 23.5312C45.7456 23.072 45.1254 22.4233 44.6898 21.5852C44.2542 20.7424 44.0364 19.7457 44.0364 18.5952C44.0364 17.473 44.2542 16.4882 44.6898 15.6406C45.1254 14.7931 45.7385 14.1326 46.5293 13.6591C47.3247 13.1856 48.2575 12.9489 49.3276 12.9489C50.0473 12.9489 50.7172 13.0649 51.3375 13.2969C51.9625 13.5241 52.507 13.8674 52.971 14.3267C53.4398 14.786 53.8044 15.3636 54.0648 16.0597C54.3252 16.7509 54.4554 17.5606 54.4554 18.4886V19.3196H45.2437V17.4446H51.6074C51.6074 17.009 51.5127 16.6231 51.3233 16.2869C51.1339 15.9508 50.8711 15.688 50.5349 15.4986C50.2035 15.3045 49.8176 15.2074 49.3773 15.2074C48.918 15.2074 48.5108 15.3139 48.1557 15.527C47.8053 15.7353 47.5307 16.017 47.3318 16.3722C47.133 16.7225 47.0312 17.1132 47.0264 17.544V19.3267C47.0264 19.8665 47.1259 20.3329 47.3247 20.7259C47.5283 21.1188 47.8148 21.4219 48.1841 21.6349C48.5534 21.848 48.9914 21.9545 49.498 21.9545C49.8342 21.9545 50.142 21.9072 50.4213 21.8125C50.7007 21.7178 50.9398 21.5758 51.1386 21.3864C51.3375 21.197 51.489 20.965 51.5932 20.6903L54.3915 20.875C54.2494 21.5473 53.9582 22.1345 53.5179 22.6364C53.0823 23.1335 52.5188 23.5218 51.8276 23.8011C51.141 24.0758 50.3479 24.2131 49.4483 24.2131ZM61.3588 24.2131C60.2414 24.2131 59.2802 23.9763 58.4753 23.5028C57.6751 23.0246 57.0596 22.3617 56.6287 21.5142C56.2026 20.6667 55.9895 19.6913 55.9895 18.5881C55.9895 17.4706 56.2049 16.4905 56.6358 15.6477C57.0714 14.8002 57.6893 14.1397 58.4895 13.6662C59.2897 13.188 60.2414 12.9489 61.3446 12.9489C62.2963 12.9489 63.1296 13.1217 63.8446 13.4673C64.5596 13.813 65.1254 14.2983 65.542 14.9233C65.9587 15.5483 66.1884 16.2822 66.231 17.125H63.3759C63.2954 16.5805 63.0823 16.1425 62.7366 15.8111C62.3957 15.4749 61.9483 15.3068 61.3943 15.3068C60.9256 15.3068 60.516 15.4347 60.1656 15.6903C59.82 15.9413 59.5501 16.3082 59.356 16.7912C59.1618 17.2741 59.0648 17.8589 59.0648 18.5455C59.0648 19.2415 59.1595 19.8333 59.3489 20.321C59.543 20.8087 59.8152 21.1804 60.1656 21.4361C60.516 21.6918 60.9256 21.8196 61.3943 21.8196C61.74 21.8196 62.0501 21.7486 62.3247 21.6065C62.6041 21.4645 62.8337 21.2585 63.0136 20.9886C63.1983 20.714 63.319 20.3849 63.3759 20.0014H66.231C66.1836 20.8348 65.9563 21.5687 65.5491 22.2031C65.1467 22.8329 64.5903 23.3253 63.8801 23.6804C63.1699 24.0355 62.3295 24.2131 61.3588 24.2131ZM73.9707 13.0909V15.3636H67.4011V13.0909H73.9707ZM68.8925 10.4773H71.9181V20.6477C71.9181 20.9271 71.9607 21.1449 72.046 21.3011C72.1312 21.4527 72.2495 21.5592 72.4011 21.6207C72.5573 21.6823 72.7372 21.7131 72.9408 21.7131C73.0829 21.7131 73.2249 21.7012 73.367 21.6776C73.509 21.6491 73.6179 21.6278 73.6937 21.6136L74.1695 23.8651C74.018 23.9124 73.8049 23.9669 73.5303 24.0284C73.2557 24.0947 72.9219 24.1349 72.5289 24.1491C71.7997 24.1776 71.1605 24.0805 70.6113 23.858C70.0668 23.6354 69.643 23.2898 69.34 22.821C69.037 22.3523 68.8878 21.7604 68.8925 21.0455V10.4773ZM75.9415 24V13.0909H78.9671V24H75.9415ZM77.4614 11.6847C77.0116 11.6847 76.6257 11.5355 76.3038 11.2372C75.9865 10.9342 75.8279 10.572 75.8279 10.1506C75.8279 9.7339 75.9865 9.37642 76.3038 9.07812C76.6257 8.77509 77.0116 8.62358 77.4614 8.62358C77.9112 8.62358 78.2948 8.77509 78.612 9.07812C78.934 9.37642 79.095 9.7339 79.095 10.1506C79.095 10.572 78.934 10.9342 78.612 11.2372C78.2948 11.5355 77.9112 11.6847 77.4614 11.6847ZM91.5612 13.0909L87.7473 24H84.3382L80.5243 13.0909H83.7203L85.9859 20.8963H86.0996L88.3581 13.0909H91.5612ZM97.7295 24.2131C96.6074 24.2131 95.6415 23.9858 94.8318 23.5312C94.0269 23.072 93.4066 22.4233 92.971 21.5852C92.5354 20.7424 92.3176 19.7457 92.3176 18.5952C92.3176 17.473 92.5354 16.4882 92.971 15.6406C93.4066 14.7931 94.0198 14.1326 94.8105 13.6591C95.606 13.1856 96.5387 12.9489 97.6088 12.9489C98.3285 12.9489 98.9985 13.0649 99.6187 13.2969C100.244 13.5241 100.788 13.8674 101.252 14.3267C101.721 14.786 102.086 15.3636 102.346 16.0597C102.606 16.7509 102.737 17.5606 102.737 18.4886V19.3196H93.525V17.4446H99.8886C99.8886 17.009 99.7939 16.6231 99.6045 16.2869C99.4152 15.9508 99.1524 15.688 98.8162 15.4986C98.4848 15.3045 98.0989 15.2074 97.6585 15.2074C97.1992 15.2074 96.792 15.3139 96.4369 15.527C96.0866 15.7353 95.8119 16.017 95.6131 16.3722C95.4142 16.7225 95.3124 17.1132 95.3077 17.544V19.3267C95.3077 19.8665 95.4071 20.3329 95.606 20.7259C95.8096 21.1188 96.096 21.4219 96.4653 21.6349C96.8347 21.848 97.2726 21.9545 97.7793 21.9545C98.1154 21.9545 98.4232 21.9072 98.7026 21.8125C98.9819 21.7178 99.221 21.5758 99.4199 21.3864C99.6187 21.197 99.7703 20.965 99.8744 20.6903L102.673 20.875C102.531 21.5473 102.239 22.1345 101.799 22.6364C101.364 23.1335 100.8 23.5218 100.109 23.8011C99.4223 24.0758 98.6292 24.2131 97.7295 24.2131ZM109.397 24V9.45455H112.472V21.4645H118.708V24H109.397ZM125.659 24.2131C124.537 24.2131 123.571 23.9858 122.762 23.5312C121.957 23.072 121.336 22.4233 120.901 21.5852C120.465 20.7424 120.247 19.7457 120.247 18.5952C120.247 17.473 120.465 16.4882 120.901 15.6406C121.336 14.7931 121.949 14.1326 122.74 13.6591C123.536 13.1856 124.468 12.9489 125.538 12.9489C126.258 12.9489 126.928 13.0649 127.548 13.2969C128.173 13.5241 128.718 13.8674 129.182 14.3267C129.651 14.786 130.015 15.3636 130.276 16.0597C130.536 16.7509 130.666 17.5606 130.666 18.4886V19.3196H121.455V17.4446H127.818C127.818 17.009 127.724 16.6231 127.534 16.2869C127.345 15.9508 127.082 15.688 126.746 15.4986C126.414 15.3045 126.029 15.2074 125.588 15.2074C125.129 15.2074 124.722 15.3139 124.367 15.527C124.016 15.7353 123.742 16.017 123.543 16.3722C123.344 16.7225 123.242 17.1132 123.237 17.544V19.3267C123.237 19.8665 123.337 20.3329 123.536 20.7259C123.739 21.1188 124.026 21.4219 124.395 21.6349C124.764 21.848 125.202 21.9545 125.709 21.9545C126.045 21.9545 126.353 21.9072 126.632 21.8125C126.912 21.7178 127.151 21.5758 127.35 21.3864C127.548 21.197 127.7 20.965 127.804 20.6903L130.602 20.875C130.46 21.5473 130.169 22.1345 129.729 22.6364C129.293 23.1335 128.73 23.5218 128.038 23.8011C127.352 24.0758 126.559 24.2131 125.659 24.2131ZM135.752 24.206C135.056 24.206 134.435 24.0852 133.891 23.8438C133.346 23.5975 132.915 23.2353 132.598 22.7571C132.286 22.2741 132.129 21.6728 132.129 20.9531C132.129 20.3471 132.241 19.8381 132.463 19.4261C132.686 19.0142 132.989 18.6828 133.372 18.4318C133.756 18.1809 134.191 17.9915 134.679 17.8636C135.172 17.7358 135.688 17.6458 136.227 17.5938C136.862 17.5275 137.373 17.4659 137.762 17.4091C138.15 17.3475 138.431 17.2576 138.607 17.1392C138.782 17.0208 138.869 16.8456 138.869 16.6136V16.571C138.869 16.1212 138.727 15.7732 138.443 15.527C138.164 15.2808 137.766 15.1577 137.25 15.1577C136.706 15.1577 136.272 15.2784 135.95 15.5199C135.628 15.7566 135.415 16.0549 135.311 16.4148L132.513 16.1875C132.655 15.5246 132.934 14.9517 133.351 14.4688C133.768 13.9811 134.305 13.607 134.963 13.3466C135.626 13.0814 136.393 12.9489 137.264 12.9489C137.87 12.9489 138.45 13.0199 139.004 13.1619C139.563 13.304 140.058 13.5241 140.489 13.8224C140.924 14.1207 141.268 14.5043 141.519 14.973C141.77 15.437 141.895 15.9934 141.895 16.642V24H139.026V22.4872H138.94C138.765 22.8281 138.531 23.1288 138.237 23.3892C137.944 23.6449 137.591 23.8461 137.179 23.9929C136.767 24.1349 136.291 24.206 135.752 24.206ZM136.618 22.1179C137.063 22.1179 137.456 22.0303 137.797 21.8551C138.138 21.6752 138.405 21.4337 138.6 21.1307C138.794 20.8277 138.891 20.4844 138.891 20.1009V18.9432C138.796 19.0047 138.666 19.0616 138.5 19.1136C138.339 19.161 138.157 19.206 137.953 19.2486C137.75 19.2865 137.546 19.322 137.342 19.3551C137.139 19.3835 136.954 19.4096 136.788 19.4332C136.433 19.4853 136.123 19.5682 135.858 19.6818C135.593 19.7955 135.387 19.9493 135.24 20.1435C135.093 20.3329 135.02 20.5696 135.02 20.8537C135.02 21.2656 135.169 21.5805 135.467 21.7983C135.771 22.0114 136.154 22.1179 136.618 22.1179ZM144.242 24V13.0909H147.176V14.9943H147.289C147.488 14.3172 147.822 13.8059 148.291 13.4602C148.759 13.1098 149.299 12.9347 149.91 12.9347C150.061 12.9347 150.225 12.9441 150.4 12.9631C150.575 12.982 150.729 13.008 150.862 13.0412V15.7259C150.72 15.6832 150.523 15.6454 150.272 15.6122C150.021 15.5791 149.792 15.5625 149.583 15.5625C149.138 15.5625 148.74 15.6596 148.39 15.8537C148.044 16.0431 147.77 16.3082 147.566 16.6491C147.367 16.9901 147.268 17.383 147.268 17.8281V24H144.242ZM155.451 17.6932V24H152.426V13.0909H155.309V15.0156H155.437C155.679 14.3812 156.084 13.8793 156.652 13.5099C157.22 13.1359 157.909 12.9489 158.719 12.9489C159.476 12.9489 160.137 13.1146 160.7 13.446C161.264 13.7775 161.701 14.2509 162.014 14.8665C162.326 15.4773 162.483 16.2064 162.483 17.054V24H159.457V17.5938C159.462 16.9261 159.291 16.4053 158.946 16.0312C158.6 15.6525 158.124 15.4631 157.518 15.4631C157.111 15.4631 156.751 15.5507 156.439 15.7259C156.131 15.901 155.889 16.1567 155.714 16.4929C155.544 16.8243 155.456 17.2244 155.451 17.6932ZM164.867 24V13.0909H167.893V24H164.867ZM166.387 11.6847C165.937 11.6847 165.552 11.5355 165.23 11.2372C164.912 10.9342 164.754 10.572 164.754 10.1506C164.754 9.7339 164.912 9.37642 165.23 9.07812C165.552 8.77509 165.937 8.62358 166.387 8.62358C166.837 8.62358 167.221 8.77509 167.538 9.07812C167.86 9.37642 168.021 9.7339 168.021 10.1506C168.021 10.572 167.86 10.9342 167.538 11.2372C167.221 11.5355 166.837 11.6847 166.387 11.6847ZM173.342 17.6932V24H170.317V13.0909H173.2V15.0156H173.328C173.569 14.3812 173.974 13.8793 174.542 13.5099C175.111 13.1359 175.8 12.9489 176.609 12.9489C177.367 12.9489 178.027 13.1146 178.591 13.446C179.154 13.7775 179.592 14.2509 179.905 14.8665C180.217 15.4773 180.373 16.2064 180.373 17.054V24H177.348V17.5938C177.353 16.9261 177.182 16.4053 176.836 16.0312C176.491 15.6525 176.015 15.4631 175.409 15.4631C175.002 15.4631 174.642 15.5507 174.329 15.7259C174.022 15.901 173.78 16.1567 173.605 16.4929C173.434 16.8243 173.347 17.2244 173.342 17.6932ZM187.673 28.3182C186.693 28.3182 185.852 28.1832 185.151 27.9134C184.455 27.6482 183.901 27.286 183.489 26.8267C183.078 26.3674 182.81 25.8513 182.687 25.2784L185.485 24.902C185.57 25.1198 185.705 25.3234 185.89 25.5128C186.075 25.7022 186.319 25.8537 186.622 25.9673C186.929 26.0857 187.303 26.1449 187.744 26.1449C188.402 26.1449 188.944 25.9839 189.37 25.6619C189.801 25.3447 190.016 24.812 190.016 24.0639V22.0682H189.889C189.756 22.3712 189.557 22.6577 189.292 22.9276C189.027 23.1974 188.686 23.4176 188.269 23.5881C187.853 23.7585 187.355 23.8438 186.778 23.8438C185.959 23.8438 185.213 23.6544 184.541 23.2756C183.873 22.892 183.34 22.3073 182.943 21.5213C182.55 20.7306 182.353 19.7315 182.353 18.5241C182.353 17.2884 182.554 16.2562 182.957 15.4276C183.359 14.599 183.894 13.9787 184.562 13.5668C185.234 13.1548 185.971 12.9489 186.771 12.9489C187.382 12.9489 187.893 13.053 188.305 13.2614C188.717 13.465 189.048 13.7206 189.299 14.0284C189.555 14.3314 189.751 14.6297 189.889 14.9233H190.002V13.0909H193.007V24.1065C193.007 25.0346 192.779 25.8111 192.325 26.4361C191.87 27.0611 191.24 27.5298 190.436 27.8423C189.635 28.1596 188.714 28.3182 187.673 28.3182ZM187.737 21.571C188.224 21.571 188.636 21.4503 188.972 21.2088C189.313 20.9626 189.574 20.6122 189.754 20.1577C189.938 19.6984 190.031 19.1491 190.031 18.5099C190.031 17.8707 189.941 17.3168 189.761 16.848C189.581 16.3745 189.32 16.0076 188.98 15.7472C188.639 15.4867 188.224 15.3565 187.737 15.3565C187.239 15.3565 186.82 15.4915 186.48 15.7614C186.139 16.0265 185.881 16.3958 185.705 16.8693C185.53 17.3428 185.443 17.8897 185.443 18.5099C185.443 19.1397 185.53 19.6842 185.705 20.1435C185.885 20.598 186.143 20.9508 186.48 21.2017C186.82 21.4479 187.239 21.571 187.737 21.571Z" fill="#FDFDFD"/>
</svg>
