<svg width="154" height="34" viewBox="0 0 154 34" fill="none" xmlns="http://www.w3.org/2000/svg">
<path d="M0 29.4054C0 13.1652 13.1652 0 29.4054 0H137C146.389 0 154 7.61116 154 17C154 26.3888 146.389 34 137 34H4.59459C2.05706 34 0 31.9429 0 29.4054Z" fill="#F0C322"/>
<path d="M22.0099 13.0909V15.3636H15.4403V13.0909H22.0099ZM16.9318 10.4773H19.9574V20.6477C19.9574 20.9271 20 21.1449 20.0852 21.3011C20.1705 21.4527 20.2888 21.5592 20.4403 21.6207C20.5966 21.6823 20.7765 21.7131 20.9801 21.7131C21.1222 21.7131 21.2642 21.7012 21.4062 21.6776C21.5483 21.6491 21.6572 21.6278 21.733 21.6136L22.2088 23.8651C22.0573 23.9124 21.8442 23.9669 21.5696 24.0284C21.295 24.0947 20.9612 24.1349 20.5682 24.1491C19.839 24.1776 19.1998 24.0805 18.6506 23.858C18.1061 23.6354 17.6823 23.2898 17.3793 22.821C17.0762 22.3523 16.9271 21.7604 16.9318 21.0455V10.4773ZM28.7926 24.2131C27.6894 24.2131 26.7353 23.9787 25.9304 23.5099C25.1302 23.0365 24.5123 22.3783 24.0767 21.5355C23.6411 20.688 23.4233 19.7055 23.4233 18.5881C23.4233 17.4612 23.6411 16.4763 24.0767 15.6335C24.5123 14.786 25.1302 14.1278 25.9304 13.6591C26.7353 13.1856 27.6894 12.9489 28.7926 12.9489C29.8958 12.9489 30.8475 13.1856 31.6477 13.6591C32.4527 14.1278 33.0729 14.786 33.5085 15.6335C33.9441 16.4763 34.1619 17.4612 34.1619 18.5881C34.1619 19.7055 33.9441 20.688 33.5085 21.5355C33.0729 22.3783 32.4527 23.0365 31.6477 23.5099C30.8475 23.9787 29.8958 24.2131 28.7926 24.2131ZM28.8068 21.8693C29.3087 21.8693 29.7277 21.7273 30.0639 21.4432C30.4001 21.1544 30.6534 20.7614 30.8239 20.2642C30.9991 19.767 31.0866 19.2012 31.0866 18.5668C31.0866 17.9323 30.9991 17.3665 30.8239 16.8693C30.6534 16.3722 30.4001 15.9792 30.0639 15.6903C29.7277 15.4015 29.3087 15.2571 28.8068 15.2571C28.3002 15.2571 27.8741 15.4015 27.5284 15.6903C27.1875 15.9792 26.9295 16.3722 26.7543 16.8693C26.5838 17.3665 26.4986 17.9323 26.4986 18.5668C26.4986 19.2012 26.5838 19.767 26.7543 20.2642C26.9295 20.7614 27.1875 21.1544 27.5284 21.4432C27.8741 21.7273 28.3002 21.8693 28.8068 21.8693ZM43.3221 24H40.0266L45.0479 9.45455H49.011L54.0252 24H50.7298L47.0863 12.7784H46.9727L43.3221 24ZM43.1161 18.2827H50.9002V20.6832H43.1161V18.2827ZM59.2312 24.1776C58.4026 24.1776 57.6521 23.9645 56.9798 23.5384C56.3121 23.1075 55.7818 22.4754 55.3888 21.642C55.0006 20.804 54.8065 19.7765 54.8065 18.5597C54.8065 17.3097 55.0077 16.2704 55.4102 15.4418C55.8126 14.6084 56.3477 13.9858 57.0153 13.5739C57.6876 13.1572 58.4239 12.9489 59.2241 12.9489C59.8349 12.9489 60.3439 13.053 60.7511 13.2614C61.163 13.465 61.4944 13.7206 61.7454 14.0284C62.0011 14.3314 62.1952 14.6297 62.3278 14.9233H62.4201V9.45455H65.4386V24H62.4556V22.2528H62.3278C62.1857 22.5559 61.9845 22.8565 61.7241 23.1548C61.4684 23.4484 61.1346 23.6922 60.7227 23.8864C60.3155 24.0805 59.8183 24.1776 59.2312 24.1776ZM60.19 21.7699C60.6777 21.7699 61.0896 21.6373 61.4258 21.3722C61.7667 21.1023 62.0271 20.7259 62.207 20.2429C62.3917 19.7599 62.484 19.1941 62.484 18.5455C62.484 17.8968 62.3941 17.3333 62.2141 16.8551C62.0342 16.3769 61.7738 16.0076 61.4329 15.7472C61.092 15.4867 60.6777 15.3565 60.19 15.3565C59.6928 15.3565 59.2738 15.4915 58.9329 15.7614C58.592 16.0312 58.3339 16.4053 58.1587 16.8835C57.9835 17.3617 57.896 17.9157 57.896 18.5455C57.896 19.1799 57.9835 19.741 58.1587 20.2287C58.3387 20.7116 58.5967 21.0904 58.9329 21.3651C59.2738 21.6349 59.6928 21.7699 60.19 21.7699ZM78.0966 13.0909L74.2827 24H70.8736L67.0597 13.0909H70.2557L72.5213 20.8963H72.6349L74.8935 13.0909H78.0966ZM82.4627 24.206C81.7667 24.206 81.1464 24.0852 80.6019 23.8438C80.0574 23.5975 79.6265 23.2353 79.3093 22.7571C78.9968 22.2741 78.8406 21.6728 78.8406 20.9531C78.8406 20.3471 78.9518 19.8381 79.1744 19.4261C79.3969 19.0142 79.6999 18.6828 80.0835 18.4318C80.467 18.1809 80.9026 17.9915 81.3903 17.8636C81.8827 17.7358 82.3988 17.6458 82.9386 17.5938C83.573 17.5275 84.0844 17.4659 84.4727 17.4091C84.8609 17.3475 85.1426 17.2576 85.3178 17.1392C85.493 17.0208 85.5806 16.8456 85.5806 16.6136V16.571C85.5806 16.1212 85.4386 15.7732 85.1545 15.527C84.8751 15.2808 84.4774 15.1577 83.9613 15.1577C83.4168 15.1577 82.9835 15.2784 82.6616 15.5199C82.3396 15.7566 82.1265 16.0549 82.0224 16.4148L79.2241 16.1875C79.3661 15.5246 79.6455 14.9517 80.0621 14.4688C80.4788 13.9811 81.0162 13.607 81.6744 13.3466C82.3372 13.0814 83.1043 12.9489 83.9755 12.9489C84.5816 12.9489 85.1616 13.0199 85.7156 13.1619C86.2743 13.304 86.7691 13.5241 87.1999 13.8224C87.6355 14.1207 87.9788 14.5043 88.2298 14.973C88.4807 15.437 88.6062 15.9934 88.6062 16.642V24H85.7369V22.4872H85.6516C85.4764 22.8281 85.2421 23.1288 84.9485 23.3892C84.6549 23.6449 84.3022 23.8461 83.8903 23.9929C83.4783 24.1349 83.0025 24.206 82.4627 24.206ZM83.3292 22.1179C83.7743 22.1179 84.1673 22.0303 84.5082 21.8551C84.8491 21.6752 85.1166 21.4337 85.3107 21.1307C85.5049 20.8277 85.6019 20.4844 85.6019 20.1009V18.9432C85.5072 19.0047 85.377 19.0616 85.2113 19.1136C85.0503 19.161 84.868 19.206 84.6644 19.2486C84.4608 19.2865 84.2572 19.322 84.0536 19.3551C83.85 19.3835 83.6654 19.4096 83.4996 19.4332C83.1445 19.4853 82.8344 19.5682 82.5692 19.6818C82.3041 19.7955 82.0981 19.9493 81.9513 20.1435C81.8046 20.3329 81.7312 20.5696 81.7312 20.8537C81.7312 21.2656 81.8803 21.5805 82.1786 21.7983C82.4817 22.0114 82.8652 22.1179 83.3292 22.1179ZM93.979 17.6932V24H90.9535V13.0909H93.837V15.0156H93.9648C94.2063 14.3812 94.6112 13.8793 95.1793 13.5099C95.7475 13.1359 96.4364 12.9489 97.2461 12.9489C98.0037 12.9489 98.6642 13.1146 99.2276 13.446C99.7911 13.7775 100.229 14.2509 100.542 14.8665C100.854 15.4773 101.01 16.2064 101.01 17.054V24H97.9847V17.5938C97.9895 16.9261 97.819 16.4053 97.4734 16.0312C97.1277 15.6525 96.6519 15.4631 96.0458 15.4631C95.6386 15.4631 95.2788 15.5507 94.9663 15.7259C94.6585 15.901 94.417 16.1567 94.2418 16.4929C94.0714 16.8243 93.9838 17.2244 93.979 17.6932ZM108.324 24.2131C107.206 24.2131 106.245 23.9763 105.44 23.5028C104.64 23.0246 104.025 22.3617 103.594 21.5142C103.168 20.6667 102.955 19.6913 102.955 18.5881C102.955 17.4706 103.17 16.4905 103.601 15.6477C104.036 14.8002 104.654 14.1397 105.455 13.6662C106.255 13.188 107.206 12.9489 108.31 12.9489C109.261 12.9489 110.095 13.1217 110.81 13.4673C111.525 13.813 112.09 14.2983 112.507 14.9233C112.924 15.5483 113.153 16.2822 113.196 17.125H110.341C110.26 16.5805 110.047 16.1425 109.702 15.8111C109.361 15.4749 108.913 15.3068 108.359 15.3068C107.891 15.3068 107.481 15.4347 107.131 15.6903C106.785 15.9413 106.515 16.3082 106.321 16.7912C106.127 17.2741 106.03 17.8589 106.03 18.5455C106.03 19.2415 106.125 19.8333 106.314 20.321C106.508 20.8087 106.78 21.1804 107.131 21.4361C107.481 21.6918 107.891 21.8196 108.359 21.8196C108.705 21.8196 109.015 21.7486 109.29 21.6065C109.569 21.4645 109.799 21.2585 109.979 20.9886C110.163 20.714 110.284 20.3849 110.341 20.0014H113.196C113.149 20.8348 112.921 21.5687 112.514 22.2031C112.112 22.8329 111.555 23.3253 110.845 23.6804C110.135 24.0355 109.295 24.2131 108.324 24.2131ZM120.105 24.2131C118.983 24.2131 118.017 23.9858 117.207 23.5312C116.402 23.072 115.782 22.4233 115.346 21.5852C114.911 20.7424 114.693 19.7457 114.693 18.5952C114.693 17.473 114.911 16.4882 115.346 15.6406C115.782 14.7931 116.395 14.1326 117.186 13.6591C117.981 13.1856 118.914 12.9489 119.984 12.9489C120.704 12.9489 121.374 13.0649 121.994 13.2969C122.619 13.5241 123.163 13.8674 123.627 14.3267C124.096 14.786 124.461 15.3636 124.721 16.0597C124.982 16.7509 125.112 17.5606 125.112 18.4886V19.3196H115.9V17.4446H122.264C122.264 17.009 122.169 16.6231 121.98 16.2869C121.79 15.9508 121.528 15.688 121.191 15.4986C120.86 15.3045 120.474 15.2074 120.034 15.2074C119.574 15.2074 119.167 15.3139 118.812 15.527C118.462 15.7353 118.187 16.017 117.988 16.3722C117.789 16.7225 117.688 17.1132 117.683 17.544V19.3267C117.683 19.8665 117.782 20.3329 117.981 20.7259C118.185 21.1188 118.471 21.4219 118.841 21.6349C119.21 21.848 119.648 21.9545 120.154 21.9545C120.491 21.9545 120.798 21.9072 121.078 21.8125C121.357 21.7178 121.596 21.5758 121.795 21.3864C121.994 21.197 122.145 20.965 122.25 20.6903L125.048 20.875C124.906 21.5473 124.615 22.1345 124.174 22.6364C123.739 23.1335 123.175 23.5218 122.484 23.8011C121.797 24.0758 121.004 24.2131 120.105 24.2131ZM131.106 24.1776C130.278 24.1776 129.527 23.9645 128.855 23.5384C128.187 23.1075 127.657 22.4754 127.264 21.642C126.876 20.804 126.681 19.7765 126.681 18.5597C126.681 17.3097 126.883 16.2704 127.285 15.4418C127.688 14.6084 128.223 13.9858 128.89 13.5739C129.563 13.1572 130.299 12.9489 131.099 12.9489C131.71 12.9489 132.219 13.053 132.626 13.2614C133.038 13.465 133.369 13.7206 133.62 14.0284C133.876 14.3314 134.07 14.6297 134.203 14.9233H134.295V9.45455H137.314V24H134.331V22.2528H134.203C134.061 22.5559 133.859 22.8565 133.599 23.1548C133.343 23.4484 133.01 23.6922 132.598 23.8864C132.19 24.0805 131.693 24.1776 131.106 24.1776ZM132.065 21.7699C132.553 21.7699 132.965 21.6373 133.301 21.3722C133.642 21.1023 133.902 20.7259 134.082 20.2429C134.267 19.7599 134.359 19.1941 134.359 18.5455C134.359 17.8968 134.269 17.3333 134.089 16.8551C133.909 16.3769 133.649 16.0076 133.308 15.7472C132.967 15.4867 132.553 15.3565 132.065 15.3565C131.568 15.3565 131.149 15.4915 130.808 15.7614C130.467 16.0312 130.209 16.4053 130.034 16.8835C129.859 17.3617 129.771 17.9157 129.771 18.5455C129.771 19.1799 129.859 19.741 130.034 20.2287C130.214 20.7116 130.472 21.0904 130.808 21.3651C131.149 21.6349 131.568 21.7699 132.065 21.7699Z" fill="#1E1E1E"/>
</svg>
